#N canvas 49 68 615 568 10;
#X obj 48 43 adc~;
#X floatatom 373 244 5 0 0 0 - - -;
#X obj 153 305 >;
#X obj 373 109 vsl 15 128 0 100 0 0 empty empty empty 0 -9 0 10 -262144
-1 -1 5461 1;
#X obj 153 349 sel 1;
#X obj 153 328 change;
#X obj 89 463 line~;
#X obj 73 484 *~;
#X obj 59 512 dac~;
#X obj 153 374 t b b;
#X obj 153 283 env~ 256 128;
#X obj 47 105 delwrite~ violin 10;
#X obj 47 129 delread~ violin 10;
#X obj 433 11 loadbang;
#X msg 423 64 43;
#X msg 218 422 0 5;
#X obj 123 403 del 6;
#X obj 563 206 vsl 15 128 0 600 0 0 empty empty empty 0 -9 0 10 -262144
-1 -1 6350 1;
#X obj 123 423 pack 1 200;
#X floatatom 564 352 5 0 0 0 - - -;
#X msg 456 65 300;
#X text 399 140 <-- Sensitivity;
#X text 398 155 (adjust to your fingers;
#X text 400 169 or to your instrument);
#X text 489 253 Attack -->;
#X text 249 293 <-- Measures the amplitude of;
#X text 272 307 the input \, and send a bang;
#X text 271 322 if it is greater than the;
#X text 255 426 <-- Turn the volume all the way down;
#X text 271 336 sensitivity threshold;
#X text 269 351 (attack detected).;
#X text 254 441 when an attack is detected \, and than ramp;
#X text 254 456 slowly up again.;
#X text 172 107 <-- Buffer the input;
#X text 172 123 to give [env~] enough time;
#X text 173 140 to detect the attack.;
#X text 318 536 GuitarExtended \, Pierre Massat \, 2012;
#X msg 495 38 \; pd dsp 1 \;;
#X connect 0 0 10 0;
#X connect 0 0 11 0;
#X connect 1 0 2 1;
#X connect 2 0 5 0;
#X connect 3 0 1 0;
#X connect 4 0 9 0;
#X connect 5 0 4 0;
#X connect 6 0 7 1;
#X connect 7 0 8 0;
#X connect 7 0 8 1;
#X connect 9 0 16 0;
#X connect 9 1 15 0;
#X connect 10 0 2 0;
#X connect 12 0 7 0;
#X connect 13 0 14 0;
#X connect 13 0 20 0;
#X connect 13 0 37 0;
#X connect 14 0 3 0;
#X connect 15 0 6 0;
#X connect 16 0 18 0;
#X connect 17 0 19 0;
#X connect 18 0 6 0;
#X connect 19 0 18 1;
#X connect 20 0 17 0;
